<svg xmlns="http://www.w3.org/2000/svg" width="26" height="23" viewBox="0 0 26 23">
  <path id="Icon_material-event-available" data-name="Icon material-event-available" d="M24.043,13.069,22.512,11.85l-7.049,5.612L12.4,15.024,10.87,16.243,15.463,19.9ZM27.611,3.8H26.167V1.5H23.278V3.8H11.722V1.5H8.833V3.8H7.389A2.629,2.629,0,0,0,4.514,6.1L4.5,22.2a2.644,2.644,0,0,0,2.889,2.3H27.611A2.653,2.653,0,0,0,30.5,22.2V6.1A2.653,2.653,0,0,0,27.611,3.8Zm0,18.4H7.389V9.55H27.611Z" transform="translate(-4.5 -1.5)" fill="#c7c7c7"/>
</svg>
