<svg xmlns="http://www.w3.org/2000/svg" width="26" height="23" viewBox="0 0 26 23">
  <path id="Icon_awesome-home" data-name="Icon awesome-home" d="M12.654,8.22l-8.322,7.8v8.415a.777.777,0,0,0,.722.822l5.058-.015a.777.777,0,0,0,.719-.822V19.5a.777.777,0,0,1,.722-.822h2.889a.777.777,0,0,1,.722.822v4.911a.883.883,0,0,0,.211.583.681.681,0,0,0,.511.242l5.056.016a.777.777,0,0,0,.722-.822V16.011L13.345,8.22A.5.5,0,0,0,12.654,8.22ZM25.8,13.52,22.026,9.981V2.87a.582.582,0,0,0-.542-.616H18.956a.582.582,0,0,0-.542.616V6.6L14.374,2.816a1.968,1.968,0,0,0-2.753,0L.2,13.52a.676.676,0,0,0-.072.868l1.151,1.592a.526.526,0,0,0,.366.222.5.5,0,0,0,.4-.138L12.654,6.115a.5.5,0,0,1,.691,0l10.617,9.948a.5.5,0,0,0,.763-.082l1.151-1.592a.676.676,0,0,0,.12-.453.644.644,0,0,0-.2-.416Z" transform="translate(0.001 -2.254)" fill="#58c6cf"/>
</svg>
