<svg xmlns="http://www.w3.org/2000/svg" width="215.609" height="221.346" viewBox="0 0 215.609 221.346"><g transform="translate(0 0)"><g transform="translate(0 0)"><path d="M36.575,182.07l3.446,4.306a7.7,7.7,0,0,0,1.5,1.535,2.692,2.692,0,0,0,1.426.434v.683H36.79v-.683c1.016,0,1.531-.2,1.531-.594,0-.165-.231-.518-.7-1.055l-2.412-3.03-2.292,2.69a3.551,3.551,0,0,0-.829,1.212c0,.508.557.765,1.666.776v.683H28.682v-.683a3.709,3.709,0,0,0,1.465-.353,6.822,6.822,0,0,0,2.063-1.848l2.567-3.025-2.755-3.459a9.894,9.894,0,0,0-1.768-1.914,2.427,2.427,0,0,0-1.417-.419v-.68h5.816v.68c-.823,0-1.237.192-1.237.569a2.061,2.061,0,0,0,.557.927l2.161,2.7,2.018-2.365a3.137,3.137,0,0,0,.681-1.022q0-.813-1.671-.811v-.68h4.886v.68a4.448,4.448,0,0,0-3.03,1.9Z" transform="translate(0 31.826)" fill="#565756" fill-rule="evenodd"/><path d="M20.236,181.473l-1.646.665C16,183.188,14.7,184.506,14.7,186.09a2.226,2.226,0,0,0,.5,1.522,1.623,1.623,0,0,0,1.292.574,3.848,3.848,0,0,0,1.647-.456,11.723,11.723,0,0,0,2.1-1.37v-4.887Zm4.414,5.263h.538c-.091,1.729-.936,2.6-2.54,2.6a2.339,2.339,0,0,1-1.631-.549,2.743,2.743,0,0,1-.781-1.619,15.225,15.225,0,0,1-2.752,1.619,5.644,5.644,0,0,1-2.226.549,3.351,3.351,0,0,1-2.157-.724,2.336,2.336,0,0,1-.907-1.917,3.361,3.361,0,0,1,1.514-2.713,18.8,18.8,0,0,1,4.187-2.267l2.34-.95v-.611a7.683,7.683,0,0,0-.162-1.867,1.928,1.928,0,0,0-.858-1.03,3.235,3.235,0,0,0-1.821-.453q-2.259,0-2.508,1.518-.242,1.545-1.276,1.545c-.613,0-.922-.293-.922-.877a2.634,2.634,0,0,1,1.219-1.846,5.98,5.98,0,0,1,3.8-.99,6.025,6.025,0,0,1,2.967.6,3.133,3.133,0,0,1,1.392,1.367,6.074,6.074,0,0,1,.341,2.346v4.981a8.213,8.213,0,0,0,.186,2.244.759.759,0,0,0,.8.493C24.063,188.187,24.486,187.7,24.65,186.736Z" transform="translate(0 31.826)" fill="#565756" fill-rule="evenodd"/><path d="M7.69,177.327H3.944v7.495a11.831,11.831,0,0,0,.148,2.32,1.724,1.724,0,0,0,.651.963,1.752,1.752,0,0,0,1.052.36,2.275,2.275,0,0,0,1.9-1.237l.486.286a3.23,3.23,0,0,1-1.387,1.5,3.831,3.831,0,0,1-1.863.507,3.046,3.046,0,0,1-1.916-.643,2.663,2.663,0,0,1-1.033-1.5,14.818,14.818,0,0,1-.207-3.03v-7.02H0v-.662a3.132,3.132,0,0,0,2.208-1.04,5.043,5.043,0,0,0,1.241-2.831h.495v3.854H7.69Z" transform="translate(0 31.826)" fill="#565756" fill-rule="evenodd"/><path d="M70.936,186.736h.54c-.093,1.729-.938,2.6-2.542,2.6a2.346,2.346,0,0,1-1.631-.549,2.742,2.742,0,0,1-.78-1.619,15.259,15.259,0,0,1-2.752,1.619,5.636,5.636,0,0,1-2.226.549,3.365,3.365,0,0,1-2.158-.724,2.339,2.339,0,0,1-.907-1.917,3.359,3.359,0,0,1,1.515-2.713,18.77,18.77,0,0,1,4.189-2.267l2.338-.95v-.611a7.747,7.747,0,0,0-.161-1.867,1.915,1.915,0,0,0-.856-1.03,3.24,3.24,0,0,0-1.823-.453q-2.262,0-2.508,1.518-.244,1.545-1.276,1.545c-.614,0-.923-.293-.923-.877a2.629,2.629,0,0,1,1.225-1.846,5.96,5.96,0,0,1,3.794-.99,6.025,6.025,0,0,1,2.965.6,3.109,3.109,0,0,1,1.391,1.367,6.048,6.048,0,0,1,.343,2.346v4.981a8.228,8.228,0,0,0,.185,2.244.763.763,0,0,0,.8.493c.672,0,1.094-.484,1.259-1.452Zm-4.413-5.263-1.641.665q-3.891,1.575-3.9,3.952a2.236,2.236,0,0,0,.5,1.522,1.634,1.634,0,0,0,1.3.574,3.843,3.843,0,0,0,1.641-.456,11.692,11.692,0,0,0,2.1-1.37Z" transform="translate(4.881 31.826)" fill="#565756" fill-rule="evenodd"/><path d="M75.838,189.426V185.37h.554q1.038,3.532,3.7,3.528a2.083,2.083,0,0,0,1.727-.7,2.358,2.358,0,0,0,.576-1.537,2.18,2.18,0,0,0-.618-1.592,9.988,9.988,0,0,0-2.417-1.5,9.124,9.124,0,0,1-2.683-1.812,3.064,3.064,0,0,1-.815-2.16,3.732,3.732,0,0,1,.883-2.336,2.983,2.983,0,0,1,2.47-1.108,3.306,3.306,0,0,1,2.685,1.325,4.192,4.192,0,0,0,.586-1.108h.557v3.838H82.49a5.244,5.244,0,0,0-1.178-2.377,2.624,2.624,0,0,0-2.051-1,2,2,0,0,0-1.47.557,1.779,1.779,0,0,0-.564,1.3,1.865,1.865,0,0,0,.618,1.4,8.477,8.477,0,0,0,2.317,1.377c1.713.773,2.76,1.532,3.147,2.265a4.744,4.744,0,0,1,.572,2.146,3.449,3.449,0,0,1-1.074,2.631,3.763,3.763,0,0,1-2.7,1.01,4.13,4.13,0,0,1-3.051-1.387,3.34,3.34,0,0,0-.668,1.294h-.554Z" transform="translate(6.167 31.826)" fill="#565756" fill-rule="evenodd"/><path d="M88.942,189.426V185.37H89.5q1.037,3.532,3.7,3.528a2.1,2.1,0,0,0,1.728-.7,2.372,2.372,0,0,0,.57-1.537,2.172,2.172,0,0,0-.618-1.592,9.844,9.844,0,0,0-2.417-1.5,9.048,9.048,0,0,1-2.678-1.812,3.044,3.044,0,0,1-.818-2.16,3.759,3.759,0,0,1,.877-2.336,3,3,0,0,1,2.479-1.108,3.3,3.3,0,0,1,2.68,1.325,3.989,3.989,0,0,0,.586-1.108h.559v3.838h-.559a5.172,5.172,0,0,0-1.176-2.377,2.628,2.628,0,0,0-2.05-1,1.994,1.994,0,0,0-1.47.557,1.769,1.769,0,0,0-.562,1.3,1.857,1.857,0,0,0,.618,1.4,8.377,8.377,0,0,0,2.315,1.377c1.711.773,2.76,1.532,3.147,2.265a4.706,4.706,0,0,1,.572,2.146,3.449,3.449,0,0,1-1.074,2.631,3.754,3.754,0,0,1-2.693,1.01,4.144,4.144,0,0,1-3.057-1.387,3.286,3.286,0,0,0-.664,1.294h-.557Z" transform="translate(7.232 31.826)" fill="#565756" fill-rule="evenodd"/><path d="M101.925,182.814a6.479,6.479,0,0,1,1.9-4.753,6.7,6.7,0,0,1,9.376.008,6.468,6.468,0,0,1,1.9,4.745,6.361,6.361,0,0,1-1.932,4.917,6.639,6.639,0,0,1-4.661,1.788,6.554,6.554,0,0,1-4.664-1.82,6.392,6.392,0,0,1-1.923-4.885Zm2.506.073c0,2.2.354,3.742,1.074,4.627a4.11,4.11,0,0,0,6.045,0q1.05-1.327,1.053-4.627,0-3.267-1.042-4.661a4.01,4.01,0,0,0-6.076-.005Q104.432,179.6,104.431,182.887Z" transform="translate(8.516 31.826)" fill="#565756" fill-rule="evenodd"/><path d="M130.9,185.992h.646q-1.029,3.529-5.142,3.527a6.051,6.051,0,0,1-4.447-1.8,6.4,6.4,0,0,1-1.809-4.758,6.569,6.569,0,0,1,1.946-4.925,6.4,6.4,0,0,1,4.6-1.887,6.226,6.226,0,0,1,2.944.7c.89.468,1.34,1.042,1.34,1.715a1.154,1.154,0,0,1-.246.714.83.83,0,0,1-.707.333q-.99,0-1.21-1.168a2.313,2.313,0,0,0-.563-1.236,2.4,2.4,0,0,0-1.525-.35,3.528,3.528,0,0,0-3.05,1.409,7.206,7.206,0,0,0-1.022,4.229,8.177,8.177,0,0,0,1.1,4.563,3.728,3.728,0,0,0,3.321,1.653A3.6,3.6,0,0,0,130.9,185.992Z" transform="translate(9.944 31.826)" fill="#565756" fill-rule="evenodd"/><path d="M140.023,176.152v8.638q0,1.98.064,2.5a1.064,1.064,0,0,0,.438.781,2.42,2.42,0,0,0,1.345.275h.32v.683H135.5v-.683h.515a2.162,2.162,0,0,0,1.4-.311,1.189,1.189,0,0,0,.382-.741c.04-.291.05-1.126.05-2.508v-3.755a9.581,9.581,0,0,0-.2-2.666.971.971,0,0,0-.545-.6,4.052,4.052,0,0,0-1.192-.123H135.5v-.681a18.479,18.479,0,0,0,4.19-.8h.329Z" transform="translate(10.941 31.826)" fill="#565756" fill-rule="evenodd"/><path d="M159.224,186.736h.545c-.1,1.729-.937,2.6-2.54,2.6a2.33,2.33,0,0,1-1.631-.549,2.743,2.743,0,0,1-.781-1.619,15.407,15.407,0,0,1-2.754,1.619,5.649,5.649,0,0,1-2.229.549,3.338,3.338,0,0,1-2.151-.724,2.327,2.327,0,0,1-.909-1.917,3.358,3.358,0,0,1,1.518-2.713,18.673,18.673,0,0,1,4.186-2.267l2.341-.95v-.611a7.752,7.752,0,0,0-.165-1.867,1.921,1.921,0,0,0-.857-1.03,3.234,3.234,0,0,0-1.818-.453c-1.508,0-2.34.505-2.513,1.518q-.243,1.545-1.271,1.545-.927,0-.926-.877a2.64,2.64,0,0,1,1.222-1.846,5.982,5.982,0,0,1,3.8-.99,6.044,6.044,0,0,1,2.967.6,3.129,3.129,0,0,1,1.389,1.367,6.007,6.007,0,0,1,.338,2.346v4.981a8.17,8.17,0,0,0,.189,2.244.762.762,0,0,0,.8.493c.669,0,1.088-.484,1.25-1.452Zm-4.407-5.263-1.646.665q-3.893,1.575-3.9,3.952a2.232,2.232,0,0,0,.5,1.522,1.627,1.627,0,0,0,1.294.574,3.877,3.877,0,0,0,1.646-.456,12.053,12.053,0,0,0,2.1-1.37v-4.887Z" transform="translate(12.251 31.826)" fill="#565756" fill-rule="evenodd"/><path d="M171.065,177.327H167.32v7.495a12.192,12.192,0,0,0,.147,2.32,1.708,1.708,0,0,0,.653.963,1.739,1.739,0,0,0,1.052.36,2.287,2.287,0,0,0,1.9-1.237l.485.286a3.278,3.278,0,0,1-1.388,1.5,3.87,3.87,0,0,1-1.862.5,3.034,3.034,0,0,1-1.916-.643,2.648,2.648,0,0,1-1.03-1.5,14.671,14.671,0,0,1-.207-3.03v-7.02h-1.783v-.662a3.136,3.136,0,0,0,2.207-1.04,5.046,5.046,0,0,0,1.247-2.831h.492v3.854h3.745v.68Z" transform="translate(15.609 31.826)" fill="#565756" fill-rule="evenodd"/><path d="M186.77,180.857h-8.7c-.042.592-.062,1.035-.062,1.323a9.364,9.364,0,0,0,1.029,4.9,3.407,3.407,0,0,0,3.082,1.636,4.04,4.04,0,0,0,3.944-2.479h.7a4.231,4.231,0,0,1-1.929,2.409,6.079,6.079,0,0,1-6.139.079,6.323,6.323,0,0,1-2.3-2.247,6.512,6.512,0,0,1-.9-3.516,7.032,7.032,0,0,1,1.734-4.87,5.557,5.557,0,0,1,4.333-1.941,4.83,4.83,0,0,1,3.782,1.483,5.093,5.093,0,0,1,1.417,3.223Zm-2.613-.62a5.715,5.715,0,0,0,.044-.626,2.707,2.707,0,0,0-.786-2.072,2.769,2.769,0,0,0-1.948-.736q-2.793,0-3.331,3.435h6.021Z" transform="translate(15.609 31.826)" fill="#565756" fill-rule="evenodd"/><path d="M191.957,189.426V185.37h.552q1.038,3.532,3.71,3.528a2.1,2.1,0,0,0,1.728-.7,2.37,2.37,0,0,0,.568-1.537,2.165,2.165,0,0,0-.62-1.592,9.808,9.808,0,0,0-2.41-1.5,9.05,9.05,0,0,1-2.686-1.812,3.071,3.071,0,0,1-.813-2.16,3.724,3.724,0,0,1,.877-2.336,2.99,2.99,0,0,1,2.479-1.108,3.3,3.3,0,0,1,2.678,1.325,4.142,4.142,0,0,0,.589-1.108h.557v3.838h-.557a5.2,5.2,0,0,0-1.178-2.377,2.63,2.63,0,0,0-2.052-1,1.984,1.984,0,0,0-1.466.557,1.768,1.768,0,0,0-.564,1.3,1.854,1.854,0,0,0,.618,1.4,8.355,8.355,0,0,0,2.316,1.377c1.709.773,2.759,1.532,3.144,2.265a4.746,4.746,0,0,1,.573,2.146,3.45,3.45,0,0,1-1.071,2.631,3.771,3.771,0,0,1-2.7,1.01,4.13,4.13,0,0,1-3.05-1.387,3.314,3.314,0,0,0-.67,1.294h-.552Z" transform="translate(15.609 31.826)" fill="#565756" fill-rule="evenodd"/><path d="M146.768,103.665c0,4.441-20.94,7.684-46.77,7.235s-46.767-4.412-46.767-8.854S74.169,94.36,100,94.808,146.768,99.217,146.768,103.665Z" transform="translate(7.804 17.399)" fill="#58c6cf" fill-rule="evenodd"/><path d="M146.768,99.021c0-8.241-20.94-16.229-46.77-17.833-15.646-.978-29.5.613-37.987,3.852-5.522-3.928-8.779-7.805-8.779-11.053,0-8.241,20.938-9.319,46.767-2.406S146.768,90.78,146.768,99.021Z" transform="translate(7.805 13.542)" fill="#58c6cf" fill-rule="evenodd"/><path d="M146.768,89.707c0-8.242-20.94-22.462-46.77-31.76-15.646-5.633-29.5-8.167-37.987-7.455-5.522-5.573-8.779-10.417-8.779-13.666,0-8.242,20.938-3.087,46.767,11.518S146.768,81.465,146.768,89.707Z" transform="translate(7.805 7.89)" fill="#58c6cf" fill-rule="evenodd"/><path d="M53.231,2.963c0-8.241,20.565,1.295,45.934,21.3s45.923,42.908,45.923,51.15c0-8.242-20.557-26.841-45.923-41.545-15.372-8.907-28.971-14.34-37.313-15.4C56.43,11.739,53.231,6.213,53.231,2.963Z" transform="translate(7.683 0)" fill="#58c6cf" fill-rule="evenodd"/><path d="M9.846,141.75v22.535a2.124,2.124,0,0,0,.36,1.458,3.238,3.238,0,0,0,1.5.608v.935H.1v-.935a3.225,3.225,0,0,0,1.569-.682,2.046,2.046,0,0,0,.362-1.385V132.648a2.193,2.193,0,0,0-.377-1.461A3.179,3.179,0,0,0,.1,130.54v-.932H14.645v.932a2.218,2.218,0,0,0-.921.384.994.994,0,0,0-.4.705,1.4,1.4,0,0,0,.247.769,4.947,4.947,0,0,0,.853.943L36.46,154.166V132.648a2.129,2.129,0,0,0-.361-1.461,3.613,3.613,0,0,0-1.572-.647v-.932h11.6v.932a2.839,2.839,0,0,0-1.519.709,2.261,2.261,0,0,0-.337,1.4v31.636a2.208,2.208,0,0,0,.36,1.458,2.793,2.793,0,0,0,1.5.608v.935H32.747v-.935a2.1,2.1,0,0,0,.956-.382.866.866,0,0,0,.331-.667,1.526,1.526,0,0,0-.244-.794,4.927,4.927,0,0,0-.813-.919L9.846,141.75Zm57.1,22.5a2.094,2.094,0,0,0,.362,1.459,3.445,3.445,0,0,0,1.491.645v.935H56.11v-.969a2.863,2.863,0,0,0,1.52-.647,2.265,2.265,0,0,0,.339-1.422v-31.6a2.273,2.273,0,0,0-.361-1.5,2.82,2.82,0,0,0-1.5-.61v-.932H68.8v.932a2.955,2.955,0,0,0-1.482.61,2.3,2.3,0,0,0-.372,1.5v31.6ZM81.93,136.286a2.54,2.54,0,0,0-1.575.335,2.8,2.8,0,0,0-.659,1.385h-1V127.817h.968a2.6,2.6,0,0,0,.719,1.424,2.435,2.435,0,0,0,1.55.369H116a2.554,2.554,0,0,0,1.573-.345,3.083,3.083,0,0,0,.653-1.448h1.009V138.08h-1.009A1.844,1.844,0,0,0,116,136.287H103.373v28a2.131,2.131,0,0,0,.359,1.458,3.26,3.26,0,0,0,1.5.608v.935H92.62v-.935a3.074,3.074,0,0,0,1.5-.682,2.457,2.457,0,0,0,.438-1.422V136.286Zm49.131-2.134a12.064,12.064,0,0,0-2.439-2.485,7.767,7.767,0,0,0-2.667-1.126v-.932H142.43v.932a4.363,4.363,0,0,0-1.532.709,1.1,1.1,0,0,0-.388.872,3.347,3.347,0,0,0,.1.754,1.625,1.625,0,0,0,.272.537l8.5,11.495,9.18-11.495a2.263,2.263,0,0,0,.348-.537,1.463,1.463,0,0,0,.1-.586,1.264,1.264,0,0,0-.486-1.04,3.855,3.855,0,0,0-1.508-.709v-.932h14.505v.932a8.863,8.863,0,0,0-2.744,1.32,11.41,11.41,0,0,0-2.377,2.291l-13.137,16.785v13.348a2.317,2.317,0,0,0,.332,1.458,3.031,3.031,0,0,0,1.445.608l.04.935H142.432v-.935a2.968,2.968,0,0,0,1.5-.645,2.147,2.147,0,0,0,.359-1.422V151.495l-13.229-17.343ZM167,167.286h12.628v-.935a4.453,4.453,0,0,1-1.5-.682,1.2,1.2,0,0,1-.441-.969,1.827,1.827,0,0,1,.08-.524,5.667,5.667,0,0,1,.3-.776l2.794-5.8h18.638l2.939,5.8a5.143,5.143,0,0,1,.311.776,1.855,1.855,0,0,1,.073.524,1.236,1.236,0,0,1-.44.969,4.494,4.494,0,0,1-1.491.682v.935h14.623v-.935a4.1,4.1,0,0,1-1.947-1,10.556,10.556,0,0,1-1.83-2.658l-15.566-29.278a6.022,6.022,0,0,1-.285-.729,2.015,2.015,0,0,1-.089-.562,1.089,1.089,0,0,1,.389-.872,4.306,4.306,0,0,1,1.531-.709v-.932H183.969v.932a4.359,4.359,0,0,1,1.595.731,1.416,1.416,0,0,1,.557,1.089,1.259,1.259,0,0,1-.064.372,3.873,3.873,0,0,1-.325.68l-15.075,29.243a4.274,4.274,0,0,0-.218.469A5.486,5.486,0,0,1,167,166.352v.934Zm23.47-28.059,6.566,13.276H183.543Z" transform="translate(0 31.826)" fill="#565756" fill-rule="evenodd"/></g></g></svg>