<svg xmlns="http://www.w3.org/2000/svg" width="162" height="163.887" viewBox="0 0 162 163.887">
  <path id="Icon_awesome-thumbs-up" data-name="Icon awesome-thumbs-up" d="M32.906,71.7H7.594A7.638,7.638,0,0,0,0,79.383V156.2a7.638,7.638,0,0,0,7.594,7.682H32.906A7.638,7.638,0,0,0,40.5,156.2V79.383A7.638,7.638,0,0,0,32.906,71.7ZM20.25,151.083a7.683,7.683,0,1,1,7.594-7.682A7.638,7.638,0,0,1,20.25,151.083ZM121.5,26.072c0,13.577-8.217,21.193-10.529,30.264h32.186A19.012,19.012,0,0,1,162,74.933a23.322,23.322,0,0,1-6.151,15.748l-.035.035c3.112,7.47,2.606,17.937-2.945,25.437,2.747,8.289-.022,18.471-5.183,23.929,1.36,5.633.71,10.427-1.945,14.286-6.458,9.386-22.464,9.519-36,9.519h-.9c-15.278-.005-27.782-5.633-37.83-10.155-5.049-2.272-11.65-5.085-16.659-5.178a3.821,3.821,0,0,1-3.728-3.84V76.287a3.859,3.859,0,0,1,1.126-2.728c12.534-12.53,17.924-25.8,28.2-36.206,4.684-4.748,6.388-11.919,8.035-18.854C89.39,12.577,92.333,0,98.719,0,106.313,0,121.5,2.561,121.5,26.072Z" fill="#565756"/>
</svg>
